<svg id="Layer_1" data-name="Layer 1" xmlns="http://www.w3.org/2000/svg" viewBox="0 0 375 375"><title>accionrenovable</title><rect width="375" height="375" rx="20.58" ry="20.58" style="fill:#d9e021"/><path d="M549.47,468.8l-8.72-12.59h-9.62V468.8H520.67V423.6h19.57a25.12,25.12,0,0,1,10.43,2,15.51,15.51,0,0,1,6.81,5.68,15.66,15.66,0,0,1,2.39,8.72,14.73,14.73,0,0,1-9.3,14.27l10.14,14.53Zm-2.65-34.65q-2.46-2-7.17-2h-8.53v15.76h8.53q4.71,0,7.17-2.07a8.15,8.15,0,0,0,0-11.66Z" transform="translate(-494.84 -197)" style="fill:#29592b"/><path d="M598,454.27H571.75a8.18,8.18,0,0,0,3.36,5.1,11.12,11.12,0,0,0,6.59,1.87,13.31,13.31,0,0,0,4.81-.81,11.66,11.66,0,0,0,3.91-2.55l5.36,5.81q-4.91,5.62-14.34,5.62A22.67,22.67,0,0,1,571,467a16.79,16.79,0,0,1-7-6.36,17.52,17.52,0,0,1-2.45-9.24,17.76,17.76,0,0,1,2.42-9.2,17,17,0,0,1,6.65-6.39,20.6,20.6,0,0,1,18.7-.1,16,16,0,0,1,6.49,6.3,18.79,18.79,0,0,1,2.36,9.53Q598.23,451.76,598,454.27ZM574.46,443.1a8.25,8.25,0,0,0-2.84,5.3h17.11a8.33,8.33,0,0,0-2.84-5.26,8.49,8.49,0,0,0-5.68-2A8.68,8.68,0,0,0,574.46,443.1Z" transform="translate(-494.84 -197)" style="fill:#29592b"/><path d="M633.26,437.42q4,3.87,4,11.5V468.8H627.16V450.46q0-4.13-1.81-6.17a6.63,6.63,0,0,0-5.23-2,8,8,0,0,0-6.07,2.36q-2.26,2.36-2.26,7V468.8H601.72V434.06h9.62v4.07a13.36,13.36,0,0,1,5-3.39,17.34,17.34,0,0,1,6.52-1.19A14.3,14.3,0,0,1,633.26,437.42Z" transform="translate(-494.84 -197)" style="fill:#29592b"/><path d="M650.18,467a17,17,0,0,1-6.81-6.36,18.61,18.61,0,0,1,0-18.47,17,17,0,0,1,6.81-6.36,22.23,22.23,0,0,1,19.66,0,17.11,17.11,0,0,1,6.78,6.36,18.61,18.61,0,0,1,0,18.47,17.1,17.1,0,0,1-6.78,6.36,22.23,22.23,0,0,1-19.66,0Zm16.21-8.59a11.11,11.11,0,0,0,0-14,8.39,8.39,0,0,0-6.36-2.62,8.5,8.5,0,0,0-6.39,2.62,11,11,0,0,0,0,14,8.5,8.5,0,0,0,6.39,2.62A8.39,8.39,0,0,0,666.39,458.44Z" transform="translate(-494.84 -197)" style="fill:#29592b"/><path d="M716.09,434.06,701.43,468.8H691l-14.59-34.74h10.4l9.62,23.64,9.94-23.64Z" transform="translate(-494.84 -197)" style="fill:#29592b"/><path d="M742.24,437.39q4.33,3.84,4.33,11.59V468.8h-9.43v-4.33q-2.84,4.84-10.59,4.84a16.43,16.43,0,0,1-6.94-1.36,10.34,10.34,0,0,1-4.49-3.75,9.75,9.75,0,0,1-1.55-5.43,9.05,9.05,0,0,1,3.65-7.62q3.65-2.78,11.27-2.78h8a6.42,6.42,0,0,0-2-5.07q-2-1.78-6-1.78a17.53,17.53,0,0,0-5.46.87,14.44,14.44,0,0,0-4.55,2.36l-3.62-7a21.85,21.85,0,0,1,6.81-3.1,30.53,30.53,0,0,1,8.17-1.1Q737.91,433.54,742.24,437.39Zm-8.59,24a6.54,6.54,0,0,0,2.84-3.52v-3.55h-6.91q-6.2,0-6.2,4.07a3.62,3.62,0,0,0,1.52,3.07,6.84,6.84,0,0,0,4.17,1.13A8.77,8.77,0,0,0,733.65,461.35Z" transform="translate(-494.84 -197)" style="fill:#29592b"/><path d="M781.8,435.77A16,16,0,0,1,788,442a20.66,20.66,0,0,1,0,18.79,16,16,0,0,1-6.23,6.26,17.7,17.7,0,0,1-8.81,2.23q-7.17,0-10.91-4.52v4h-9.62V420.89h10.07v16.86q3.81-4.2,10.46-4.2A17.7,17.7,0,0,1,781.8,435.77Zm-4.2,22.67a11.12,11.12,0,0,0,0-14,9,9,0,0,0-12.72,0,11.12,11.12,0,0,0,0,14,9,9,0,0,0,12.72,0Z" transform="translate(-494.84 -197)" style="fill:#29592b"/><path d="M793.78,420.89h10.07V468.8H793.78Z" transform="translate(-494.84 -197)" style="fill:#29592b"/><path d="M843.83,454.27H817.54a8.18,8.18,0,0,0,3.36,5.1,11.12,11.12,0,0,0,6.59,1.87,13.31,13.31,0,0,0,4.81-.81,11.66,11.66,0,0,0,3.91-2.55l5.36,5.81q-4.91,5.62-14.34,5.62a22.67,22.67,0,0,1-10.4-2.29,16.79,16.79,0,0,1-7-6.36,17.51,17.51,0,0,1-2.45-9.24,17.75,17.75,0,0,1,2.42-9.2,17,17,0,0,1,6.65-6.39,20.6,20.6,0,0,1,18.7-.1,16,16,0,0,1,6.49,6.3,18.78,18.78,0,0,1,2.36,9.53Q844,451.76,843.83,454.27ZM820.25,443.1a8.25,8.25,0,0,0-2.84,5.3h17.11a8.34,8.34,0,0,0-2.84-5.26,8.5,8.5,0,0,0-5.68-2A8.67,8.67,0,0,0,820.25,443.1Z" transform="translate(-494.84 -197)" style="fill:#29592b"/><path d="M682.34,267C675.91,256.66,666.51,248.81,657,243a127.65,127.65,0,0,1,25.37-29.62A127.64,127.64,0,0,1,707.71,243c-9.53,5.82-19,13.67-25.37,24.06" transform="translate(-494.84 -197)" style="fill:#7ab042"/><path d="M645.48,276c-10.47-6.28-22.43-8.94-33.59-9.74a127.28,127.28,0,0,1,9-38A127.31,127.31,0,0,1,657,243c-5.79,9.55-10.56,20.84-11.49,33" transform="translate(-494.84 -197)" style="fill:#99c863"/><path d="M673.52,311.1c-4.94-12-12.58-24.33-24.37-32.7q-1.8-1.28-3.67-2.4c.94-12.17,5.7-23.47,11.49-33,9.53,5.82,18.93,13.67,25.37,24.06-.76,1.24-1.49,2.51-2.16,3.81-6.64,12.85-7.75,27.35-6.66,40.24" transform="translate(-494.84 -197)" style="fill:#4c8e40"/><path d="M651.43,351.21c-14.43,0-31.43-2.66-45.17-12.41-30.18-21.43-33.19-69-33.19-69A127.25,127.25,0,0,1,604,266c2.58,0,5.23.08,7.93.28-.85,12.47.45,26.28,6.79,38.58,17,32.89,63.66,42.56,63.66,42.56h0a127.55,127.55,0,0,1-30.92,3.81" transform="translate(-494.84 -197)" style="fill:#abd27d"/><path d="M682.34,347.4s-46.68-9.67-63.66-42.56c-6.35-12.3-7.64-26.11-6.79-38.58,11.16.8,23.12,3.46,33.59,9.74-.11,1.45-.18,2.91-.18,4.38,0,37,37,67,37,67h0" transform="translate(-494.84 -197)" style="fill:#68a844"/><path d="M682.34,347.4s-37-30-37-67c0-1.47.07-2.93.18-4.38q1.87,1.12,3.67,2.4c11.78,8.37,19.42,20.74,24.37,32.7a127.65,127.65,0,0,0,8.82,36.3" transform="translate(-494.84 -197)" style="fill:#35773a"/><path d="M719.21,276c-.94-12.17-5.7-23.47-11.49-33a127.36,127.36,0,0,1,36.13-14.69,127.66,127.66,0,0,1,8.93,38c-11.14.8-23.1,3.46-33.57,9.74" transform="translate(-494.84 -197)" style="fill:#649d42"/><path d="M691.16,311.1c1.09-12.89,0-27.39-6.66-40.24-.67-1.31-1.4-2.58-2.16-3.81,6.42-10.38,15.84-18.24,25.37-24.06,5.79,9.54,10.56,20.84,11.49,33q-1.87,1.12-3.67,2.4c-11.78,8.37-19.42,20.74-24.37,32.7" transform="translate(-494.84 -197)" style="fill:#326f36"/><path d="M682.34,347.4h0a127.36,127.36,0,0,0-8.82-36.3c-1.09-12.89,0-27.39,6.66-40.24.67-1.31,1.4-2.58,2.16-3.81.76,1.24,1.49,2.51,2.16,3.81,6.64,12.85,7.75,27.35,6.66,40.24a127.35,127.35,0,0,0-8.82,36.3h0" transform="translate(-494.84 -197)" style="fill:#29592b"/><path d="M682.34,347.4h0a127.65,127.65,0,0,1-8.82-36.3,127.36,127.36,0,0,1,8.82,36.3" transform="translate(-494.84 -197)" style="fill:#254a23"/><path d="M713.26,351.21a127.56,127.56,0,0,1-30.92-3.81h0S729,337.73,746,304.85c6.35-12.3,7.64-26.11,6.77-38.58,2.72-.19,5.37-.28,8-.28a127.48,127.48,0,0,1,30.89,3.81s-3,47.57-33.19,69c-13.74,9.76-30.74,12.41-45.17,12.41" transform="translate(-494.84 -197)" style="fill:#55893e"/><path d="M682.34,347.4h0s37-30,37-67c0-1.47-.07-2.93-.18-4.38,10.47-6.28,22.43-8.94,33.57-9.74.87,12.47-.42,26.28-6.77,38.58-17,32.89-63.66,42.56-63.66,42.56" transform="translate(-494.84 -197)" style="fill:#2a572a"/><path d="M682.34,347.4h0a127.67,127.67,0,0,0,8.82-36.3c4.94-12,12.58-24.33,24.37-32.7q1.8-1.28,3.67-2.4c.11,1.45.18,2.91.18,4.38,0,37-37,67-37,67" transform="translate(-494.84 -197)" style="fill:#203c1b"/><path d="M682.34,347.4a127.35,127.35,0,0,1,8.82-36.3,127.67,127.67,0,0,1-8.82,36.3" transform="translate(-494.84 -197)" style="fill:#1a3018"/><path d="M548.13,358.71,521.24,419h14.31l5.34-12.93h28L574.25,419h14.65l-27-60.34Zm-2.76,36.81,9.57-23.1,9.57,23.1Z" transform="translate(-494.84 -197)" style="fill:#29592b"/><path d="M617.52,408.19a20.14,20.14,0,0,1-10-2.46,17.46,17.46,0,0,1-6.85-6.85,21.58,21.58,0,0,1,0-20,17.46,17.46,0,0,1,6.85-6.85,20.14,20.14,0,0,1,10-2.46,19.28,19.28,0,0,1,15.17,7.07l9-8.28A28.42,28.42,0,0,0,631,360.43a37.41,37.41,0,0,0-30.95,1.25,29.92,29.92,0,0,0-11.72,11.12,32.42,32.42,0,0,0,0,32.15,29.92,29.92,0,0,0,11.72,11.12,34.65,34.65,0,0,0,16.68,4A35.48,35.48,0,0,0,631,417.32a27.94,27.94,0,0,0,10.69-8l-9-8.27A19.18,19.18,0,0,1,617.52,408.19Z" transform="translate(-494.84 -197)" style="fill:#29592b"/><path d="M663,372a20.14,20.14,0,0,1,10-2.46,19.28,19.28,0,0,1,15.17,7.07l9-8.28a28.42,28.42,0,0,0-10.65-7.93,37.41,37.41,0,0,0-30.95,1.25,29.92,29.92,0,0,0-11.72,11.12,32.42,32.42,0,0,0,0,32.15,29.92,29.92,0,0,0,11.72,11.12,34.65,34.65,0,0,0,16.68,4,35.48,35.48,0,0,0,14.22-2.76,27.94,27.94,0,0,0,10.69-8l-9-8.27a19.18,19.18,0,0,1-15.17,7.15,20.14,20.14,0,0,1-10-2.46,17.46,17.46,0,0,1-6.85-6.85,21.58,21.58,0,0,1,0-20A17.46,17.46,0,0,1,663,372Z" transform="translate(-494.84 -197)" style="fill:#29592b"/><rect x="205.17" y="161.71" width="13.96" height="60.34" style="fill:#29592b"/><path d="M767.94,361.72a37.34,37.34,0,0,0-33.83,0,30.07,30.07,0,0,0-11.81,11.16,32.1,32.1,0,0,0,0,32A30.06,30.06,0,0,0,734.11,416a37.34,37.34,0,0,0,33.83,0,30.78,30.78,0,0,0,0-54.31Zm-.47,37.15a17.63,17.63,0,0,1-6.77,6.85,20.2,20.2,0,0,1-19.31,0,17.62,17.62,0,0,1-6.77-6.85,21.58,21.58,0,0,1,0-20,17.62,17.62,0,0,1,6.77-6.85,20.2,20.2,0,0,1,19.31,0,17.63,17.63,0,0,1,6.77,6.85,21.58,21.58,0,0,1,0,20Z" transform="translate(-494.84 -197)" style="fill:#29592b"/><polygon points="334.81 161.71 334.81 198.34 304.81 161.71 293.26 161.71 293.26 222.05 307.06 222.05 307.06 185.41 337.14 222.05 348.6 222.05 348.6 161.71 334.81 161.71" style="fill:#29592b"/><path d="M584.09,526.59a6.78,6.78,0,0,1,2.66,2.67,8.52,8.52,0,0,1,0,7.86,6.87,6.87,0,0,1-2.66,2.69,7.55,7.55,0,0,1-3.79,1A7,7,0,0,1,577,540a6.12,6.12,0,0,1-2.39-2.29v2.94h-1.92v-21h2v8.93a6.19,6.19,0,0,1,2.39-2.19,7,7,0,0,1,3.27-.75A7.64,7.64,0,0,1,584.09,526.59ZM583,538.27a5.08,5.08,0,0,0,2-2,6.71,6.71,0,0,0,0-6.05,5.09,5.09,0,0,0-2-2,5.93,5.93,0,0,0-5.67,0,5.12,5.12,0,0,0-2,2,6.71,6.71,0,0,0,0,6.05,5.11,5.11,0,0,0,2,2,5.92,5.92,0,0,0,5.67,0Z" transform="translate(-494.84 -197)" style="fill:#29592b"/><path d="M591.81,519.65h2v21h-2Z" transform="translate(-494.84 -197)" style="fill:#29592b"/><path d="M601.62,539.79a7.11,7.11,0,0,1-2.71-2.7,8.19,8.19,0,0,1,0-7.8,7,7,0,0,1,2.71-2.69,8.28,8.28,0,0,1,7.75,0,6.91,6.91,0,0,1,2.7,2.69,8.28,8.28,0,0,1,0,7.8,7,7,0,0,1-2.7,2.7,8.18,8.18,0,0,1-7.75,0Zm6.72-1.53a5,5,0,0,0,2-2,6.82,6.82,0,0,0,0-6.05,5,5,0,0,0-2-2,6,6,0,0,0-5.68,0,5.1,5.1,0,0,0-2,2,6.71,6.71,0,0,0,0,6.05,5.09,5.09,0,0,0,2,2,5.95,5.95,0,0,0,5.68,0Z" transform="translate(-494.84 -197)" style="fill:#29592b"/><path d="M630.92,525.76v13.06q0,3.79-1.85,5.61t-5.58,1.82a12.48,12.48,0,0,1-3.92-.61,8.06,8.06,0,0,1-3-1.68l1-1.53a7.62,7.62,0,0,0,2.61,1.5,9.75,9.75,0,0,0,3.24.54,5.71,5.71,0,0,0,4.16-1.32,5.53,5.53,0,0,0,1.33-4.08v-1.89a6.05,6.05,0,0,1-2.45,2.15,7.57,7.57,0,0,1-3.35.74,7.92,7.92,0,0,1-3.8-.92,6.78,6.78,0,0,1-2.69-2.57,7.23,7.23,0,0,1-1-3.75,7.15,7.15,0,0,1,1-3.73,6.73,6.73,0,0,1,2.67-2.54,8,8,0,0,1,3.82-.91,7.53,7.53,0,0,1,3.42.76,6.16,6.16,0,0,1,2.46,2.2v-2.86Zm-4.69,11.83a5,5,0,0,0,2-1.94,5.53,5.53,0,0,0,.72-2.83,5.46,5.46,0,0,0-.72-2.81,5.05,5.05,0,0,0-2-1.92,6.53,6.53,0,0,0-5.82,0,4.92,4.92,0,0,0-2,1.92,5.91,5.91,0,0,0,0,5.65,5,5,0,0,0,2,1.94,6,6,0,0,0,2.9.69A6.09,6.09,0,0,0,626.22,537.59Z" transform="translate(-494.84 -197)" style="fill:#29592b"/><path d="M657.52,519.65v21H655.6v-2.94a6.12,6.12,0,0,1-2.39,2.29,7,7,0,0,1-3.35.79,7.55,7.55,0,0,1-3.79-1,6.87,6.87,0,0,1-2.66-2.69,8.52,8.52,0,0,1,0-7.86,6.78,6.78,0,0,1,2.66-2.67,7.64,7.64,0,0,1,3.79-.95,7,7,0,0,1,3.27.75,6.19,6.19,0,0,1,2.39,2.19v-8.93Zm-4.68,18.62a5.11,5.11,0,0,0,2-2,6.71,6.71,0,0,0,0-6.05,5.12,5.12,0,0,0-2-2,5.91,5.91,0,0,0-5.65,0,5.1,5.1,0,0,0-2,2,6.71,6.71,0,0,0,0,6.05,5.09,5.09,0,0,0,2,2,5.89,5.89,0,0,0,5.65,0Z" transform="translate(-494.84 -197)" style="fill:#29592b"/><path d="M676.07,533.81H663.63a5.32,5.32,0,0,0,1.78,3.75,5.91,5.91,0,0,0,4.07,1.43,6.42,6.42,0,0,0,2.55-.5,5.57,5.57,0,0,0,2-1.46l1.13,1.3a6.36,6.36,0,0,1-2.47,1.81,8.35,8.35,0,0,1-3.27.62,8.24,8.24,0,0,1-4.06-1,7,7,0,0,1-2.76-2.7,7.7,7.7,0,0,1-1-3.9,8,8,0,0,1,.95-3.9,6.86,6.86,0,0,1,2.6-2.69,7.27,7.27,0,0,1,3.72-1,7.19,7.19,0,0,1,3.7,1,6.82,6.82,0,0,1,2.57,2.67,8,8,0,0,1,.93,3.92Zm-10.79-5.07a5.39,5.39,0,0,0-1.65,3.58h10.55a5.39,5.39,0,0,0-1.65-3.58,5.46,5.46,0,0,0-7.24,0Z" transform="translate(-494.84 -197)" style="fill:#29592b"/><path d="M699.64,527.27a6.35,6.35,0,0,1,1.65,4.74v8.62h-2V532.2a4.93,4.93,0,0,0-1.16-3.53,4.36,4.36,0,0,0-3.31-1.21,5.08,5.08,0,0,0-3.8,1.43,5.39,5.39,0,0,0-1.4,3.94v7.8h-2V525.76h1.92v2.74a5.59,5.59,0,0,1,2.28-2.11,7.27,7.27,0,0,1,3.38-.75A6.08,6.08,0,0,1,699.64,527.27Z" transform="translate(-494.84 -197)" style="fill:#29592b"/><path d="M709,539.79a7.1,7.1,0,0,1-2.71-2.7,8.19,8.19,0,0,1,0-7.8A7,7,0,0,1,709,526.6a8.28,8.28,0,0,1,7.75,0,6.92,6.92,0,0,1,2.7,2.69,8.29,8.29,0,0,1,0,7.8,7,7,0,0,1-2.7,2.7,8.18,8.18,0,0,1-7.75,0Zm6.72-1.53a5,5,0,0,0,2-2,6.83,6.83,0,0,0,0-6.05,5,5,0,0,0-2-2,6,6,0,0,0-5.68,0,5.12,5.12,0,0,0-2,2,6.71,6.71,0,0,0,0,6.05,5.11,5.11,0,0,0,2,2,6,6,0,0,0,5.68,0Z" transform="translate(-494.84 -197)" style="fill:#29592b"/><path d="M732.36,539.72a3.78,3.78,0,0,1-1.4.78,5.6,5.6,0,0,1-1.74.27,3.94,3.94,0,0,1-4.35-4.32v-9h-2.66v-1.7h2.66V522.5h2v3.25h4.52v1.7h-4.52v8.88a2.81,2.81,0,0,0,.66,2,2.52,2.52,0,0,0,1.91.69,3.68,3.68,0,0,0,1.2-.2,3,3,0,0,0,1-.57Z" transform="translate(-494.84 -197)" style="fill:#29592b"/><path d="M736,522.08a1.39,1.39,0,0,1-.42-1,1.36,1.36,0,0,1,.42-1,1.42,1.42,0,0,1,1-.42,1.44,1.44,0,0,1,1,.41,1.31,1.31,0,0,1,.42,1,1.48,1.48,0,0,1-2.52,1Zm0,3.68h2v14.87h-2Z" transform="translate(-494.84 -197)" style="fill:#29592b"/><path d="M745.83,539.81a7,7,0,0,1-2.73-2.7,7.78,7.78,0,0,1-1-3.92,7.7,7.7,0,0,1,1-3.9,7,7,0,0,1,2.73-2.69,8,8,0,0,1,3.95-1,7.63,7.63,0,0,1,3.43.75,5.7,5.7,0,0,1,2.39,2.19l-1.5,1a4.68,4.68,0,0,0-1.87-1.65,5.54,5.54,0,0,0-2.46-.55,5.82,5.82,0,0,0-2.9.72,5.07,5.07,0,0,0-2,2,6.74,6.74,0,0,0,0,6.07,5.08,5.08,0,0,0,2,2,5.82,5.82,0,0,0,2.9.72,5.67,5.67,0,0,0,2.46-.54,4.57,4.57,0,0,0,1.87-1.64l1.5,1a5.69,5.69,0,0,1-2.4,2.19,7.66,7.66,0,0,1-3.42.75A8,8,0,0,1,745.83,539.81Z" transform="translate(-494.84 -197)" style="fill:#29592b"/><path d="M759.51,522.08a1.39,1.39,0,0,1-.42-1,1.36,1.36,0,0,1,.42-1,1.42,1.42,0,0,1,1-.42,1.44,1.44,0,0,1,1,.41,1.31,1.31,0,0,1,.42,1,1.48,1.48,0,0,1-2.52,1Zm0,3.68h2v14.87h-2Z" transform="translate(-494.84 -197)" style="fill:#29592b"/><path d="M776.81,527.1a5.63,5.63,0,0,1,1.55,4.31v9.22h-1.92v-2.32a4.59,4.59,0,0,1-2,1.81,7,7,0,0,1-3.12.65,6.11,6.11,0,0,1-4-1.19,4.08,4.08,0,0,1-.1-6.19,6.72,6.72,0,0,1,4.37-1.16h4.72v-.91a3.81,3.81,0,0,0-1.08-2.93,4.44,4.44,0,0,0-3.14-1,8,8,0,0,0-2.71.47,6.84,6.84,0,0,0-2.23,1.29l-.91-1.5a8,8,0,0,1,2.71-1.49,10.57,10.57,0,0,1,3.34-.52A6.29,6.29,0,0,1,776.81,527.1Zm-2.26,11.31a4.65,4.65,0,0,0,1.81-2.25v-2.43h-4.66q-3.82,0-3.82,2.66a2.43,2.43,0,0,0,1,2,4.5,4.5,0,0,0,2.77.75A5.29,5.29,0,0,0,774.55,538.41Z" transform="translate(-494.84 -197)" style="fill:#29592b"/><path d="M784.34,540.25a7.45,7.45,0,0,1-2.59-1.31l.9-1.58a7.6,7.6,0,0,0,2.35,1.2,9.33,9.33,0,0,0,2.94.47,5.61,5.61,0,0,0,3-.64,2,2,0,0,0,1-1.79,1.61,1.61,0,0,0-.54-1.29,3.55,3.55,0,0,0-1.36-.71,19.47,19.47,0,0,0-2.18-.47,24.81,24.81,0,0,1-2.91-.69,4.27,4.27,0,0,1-1.88-1.2,3.34,3.34,0,0,1-.78-2.35,3.68,3.68,0,0,1,1.55-3.05,7,7,0,0,1,4.32-1.19,11.24,11.24,0,0,1,2.88.38,8,8,0,0,1,2.37,1l-.88,1.61a7.5,7.5,0,0,0-4.38-1.27,5.09,5.09,0,0,0-2.9.68,2.08,2.08,0,0,0-1,1.78,1.76,1.76,0,0,0,.55,1.36,3.4,3.4,0,0,0,1.37.75,21.92,21.92,0,0,0,2.26.5,25.62,25.62,0,0,1,2.86.68,4.19,4.19,0,0,1,1.84,1.16,3.19,3.19,0,0,1,.76,2.26,3.6,3.6,0,0,1-1.62,3.1,7.73,7.73,0,0,1-4.51,1.15A11.37,11.37,0,0,1,784.34,540.25Z" transform="translate(-494.84 -197)" style="fill:#29592b"/><line x1="29.02" y1="296.13" x2="345.98" y2="296.13" style="fill:#f15a24;stroke:#006837;stroke-miterlimit:10;stroke-width:0.5px"/></svg>