<svg id="Layer_1" data-name="Layer 1" xmlns="http://www.w3.org/2000/svg" viewBox="0 0 342.6 352.7"><title>accionrenovable2</title><path d="M541.72,478.64l-9.24-13.34h-10.2v13.34H511.2v-47.9h20.73A26.62,26.62,0,0,1,543,432.86a16.43,16.43,0,0,1,7.22,6,16.6,16.6,0,0,1,2.53,9.24,15.6,15.6,0,0,1-9.85,15.12l10.74,15.4Zm-2.81-36.71q-2.6-2.15-7.59-2.16h-9v16.7h9q5,0,7.59-2.19a8.63,8.63,0,0,0,0-12.35Z" transform="translate(-511.2 -208)" style="fill:#29592b"/><path d="M593.17,463.24H565.32a8.67,8.67,0,0,0,3.56,5.41,11.78,11.78,0,0,0,7,2,14.1,14.1,0,0,0,5.1-.86,12.35,12.35,0,0,0,4.14-2.7l5.68,6.16q-5.2,6-15.19,6a24,24,0,0,1-11-2.43,17.79,17.79,0,0,1-7.39-6.74,18.56,18.56,0,0,1-2.6-9.78,18.82,18.82,0,0,1,2.57-9.75,18,18,0,0,1,7-6.77,21.82,21.82,0,0,1,19.81-.1,17,17,0,0,1,6.88,6.67,19.9,19.9,0,0,1,2.5,10.09Q593.38,460.58,593.17,463.24Zm-25-11.84a8.74,8.74,0,0,0-3,5.61h18.13a8.83,8.83,0,0,0-3-5.58,9,9,0,0,0-6-2.09A9.19,9.19,0,0,0,568.19,451.41Z" transform="translate(-511.2 -208)" style="fill:#29592b"/><path d="M630.49,445.39q4.21,4.11,4.21,12.18v21.07H624V459.21q0-4.38-1.92-6.53a7,7,0,0,0-5.54-2.16,8.5,8.5,0,0,0-6.43,2.5q-2.4,2.5-2.39,7.42v18.2H597.07V441.83h10.2v4.31a14.16,14.16,0,0,1,5.27-3.59,18.37,18.37,0,0,1,6.91-1.27Q626.29,441.28,630.49,445.39Z" transform="translate(-511.2 -208)" style="fill:#29592b"/><path d="M648.42,476.76A18,18,0,0,1,641.2,470a19.71,19.71,0,0,1,0-19.57,18.06,18.06,0,0,1,7.22-6.74,23.55,23.55,0,0,1,20.84,0,18.13,18.13,0,0,1,7.19,6.74,19.71,19.71,0,0,1,0,19.57,18.12,18.12,0,0,1-7.19,6.74,23.55,23.55,0,0,1-20.84,0Zm17.17-9.1a11.78,11.78,0,0,0,0-14.85,8.89,8.89,0,0,0-6.74-2.77,9,9,0,0,0-6.77,2.77,11.66,11.66,0,0,0,0,14.85,9,9,0,0,0,6.77,2.77A8.89,8.89,0,0,0,665.6,467.66Z" transform="translate(-511.2 -208)" style="fill:#29592b"/><path d="M718.25,441.83l-15.53,36.81h-11l-15.46-36.81h11l10.2,25,10.54-25Z" transform="translate(-511.2 -208)" style="fill:#29592b"/><path d="M746,445.35q4.58,4.07,4.58,12.28v21h-10v-4.58q-3,5.13-11.22,5.13a17.41,17.41,0,0,1-7.35-1.44,11,11,0,0,1-4.76-4,10.33,10.33,0,0,1-1.64-5.75,9.59,9.59,0,0,1,3.87-8.07q3.86-2.94,11.94-2.94h8.48a6.81,6.81,0,0,0-2.12-5.37q-2.12-1.88-6.36-1.88a18.57,18.57,0,0,0-5.78.92,15.3,15.3,0,0,0-4.82,2.5l-3.83-7.46a23.15,23.15,0,0,1,7.22-3.28,32.35,32.35,0,0,1,8.66-1.16Q741.37,441.28,746,445.35Zm-9.1,25.39a6.93,6.93,0,0,0,3-3.73v-3.76h-7.32q-6.57,0-6.57,4.31a3.84,3.84,0,0,0,1.61,3.25A7.24,7.24,0,0,0,732,472,9.3,9.3,0,0,0,736.86,470.74Z" transform="translate(-511.2 -208)" style="fill:#29592b"/><path d="M787.87,443.64a17,17,0,0,1,6.6,6.64,21.89,21.89,0,0,1,0,19.91,17,17,0,0,1-6.6,6.64,18.76,18.76,0,0,1-9.34,2.36q-7.6,0-11.56-4.79v4.24h-10.2V427.87h10.67v17.86q4-4.45,11.08-4.45A18.76,18.76,0,0,1,787.87,443.64Zm-4.45,24a11.78,11.78,0,0,0,0-14.85,9.58,9.58,0,0,0-13.48,0,11.78,11.78,0,0,0,0,14.85,9.58,9.58,0,0,0,13.48,0Z" transform="translate(-511.2 -208)" style="fill:#29592b"/><path d="M800.56,427.87h10.67v50.77H800.56Z" transform="translate(-511.2 -208)" style="fill:#29592b"/><path d="M853.59,463.24H825.74a8.66,8.66,0,0,0,3.56,5.41,11.78,11.78,0,0,0,7,2,14.11,14.11,0,0,0,5.1-.86,12.35,12.35,0,0,0,4.14-2.7l5.68,6.16q-5.2,6-15.19,6a24,24,0,0,1-11-2.43A17.79,17.79,0,0,1,817.6,470a18.56,18.56,0,0,1-2.6-9.78,18.81,18.81,0,0,1,2.57-9.75,18,18,0,0,1,7-6.77,21.82,21.82,0,0,1,19.81-.1,17,17,0,0,1,6.88,6.67,19.89,19.89,0,0,1,2.5,10.09Q853.79,460.58,853.59,463.24Zm-25-11.84a8.74,8.74,0,0,0-3,5.61h18.13a8.83,8.83,0,0,0-3-5.58,9,9,0,0,0-6-2.09A9.19,9.19,0,0,0,828.62,451.41Z" transform="translate(-511.2 -208)" style="fill:#29592b"/><path d="M682.5,264.87c-6.82-11-16.78-19.32-26.88-25.49A135.25,135.25,0,0,1,682.5,208a135.24,135.24,0,0,1,26.88,31.39c-10.1,6.17-20.08,14.49-26.88,25.49" transform="translate(-511.2 -208)" style="fill:#7ab042"/><path d="M643.44,274.36c-11.09-6.65-23.76-9.47-35.59-10.32a134.86,134.86,0,0,1,9.49-40.22,134.89,134.89,0,0,1,38.28,15.56c-6.14,10.11-11.19,22.08-12.18,35" transform="translate(-511.2 -208)" style="fill:#99c863"/><path d="M673.15,311.55c-5.24-12.67-13.33-25.78-25.82-34.65q-1.91-1.36-3.89-2.54c1-12.9,6-24.86,12.18-35,10.1,6.17,20.06,14.49,26.88,25.49-.8,1.31-1.58,2.65-2.29,4-7,13.62-8.21,29-7.06,42.64" transform="translate(-511.2 -208)" style="fill:#4c8e40"/><path d="M649.74,354c-15.29,0-33.3-2.82-47.86-13.15-32-22.71-35.16-73.11-35.16-73.11a134.82,134.82,0,0,1,32.73-4c2.74,0,5.55.09,8.4.29-.9,13.21.47,27.84,7.2,40.88C633,339.77,682.5,350,682.5,350h0a135.14,135.14,0,0,1-32.76,4" transform="translate(-511.2 -208)" style="fill:#abd27d"/><path d="M682.5,350S633,339.77,615.05,304.92c-6.73-13-8.09-27.67-7.2-40.88,11.82.85,24.5,3.66,35.59,10.32-.12,1.53-.19,3.08-.19,4.64,0,39.21,39.25,71,39.25,71h0" transform="translate(-511.2 -208)" style="fill:#68a844"/><path d="M682.5,350s-39.25-31.79-39.25-71c0-1.56.07-3.11.19-4.64q2,1.19,3.89,2.54c12.48,8.87,20.58,22,25.82,34.65A135.25,135.25,0,0,0,682.5,350" transform="translate(-511.2 -208)" style="fill:#35773a"/><path d="M721.55,274.36c-1-12.9-6-24.86-12.18-35a134.94,134.94,0,0,1,38.28-15.56A135.26,135.26,0,0,1,757.12,264c-11.8.85-24.47,3.66-35.56,10.32" transform="translate(-511.2 -208)" style="fill:#649d42"/><path d="M691.84,311.55c1.16-13.66,0-29-7.06-42.64-.71-1.39-1.49-2.73-2.29-4,6.8-11,16.78-19.32,26.88-25.49,6.14,10.11,11.19,22.08,12.18,35q-2,1.19-3.89,2.54c-12.48,8.87-20.58,22-25.82,34.65" transform="translate(-511.2 -208)" style="fill:#326f36"/><path d="M682.5,350h0a134.94,134.94,0,0,0-9.35-38.46c-1.16-13.66,0-29,7.06-42.64.71-1.39,1.49-2.73,2.29-4,.8,1.31,1.58,2.65,2.29,4,7,13.62,8.21,29,7.06,42.64A134.93,134.93,0,0,0,682.5,350h0" transform="translate(-511.2 -208)" style="fill:#29592b"/><path d="M682.5,350h0a135.25,135.25,0,0,1-9.35-38.46A134.94,134.94,0,0,1,682.5,350" transform="translate(-511.2 -208)" style="fill:#254a23"/><path d="M715.25,354a135.15,135.15,0,0,1-32.76-4h0s49.44-10.24,67.45-45.09c6.73-13,8.09-27.67,7.17-40.88,2.88-.21,5.69-.29,8.43-.29a135.07,135.07,0,0,1,32.73,4s-3.19,50.4-35.16,73.11C748.55,351.23,730.54,354,715.25,354" transform="translate(-511.2 -208)" style="fill:#55893e"/><path d="M682.5,350h0s39.25-31.79,39.25-71c0-1.56-.07-3.11-.19-4.64,11.09-6.65,23.76-9.47,35.56-10.32.92,13.21-.45,27.84-7.17,40.88C731.94,339.77,682.5,350,682.5,350" transform="translate(-511.2 -208)" style="fill:#2a572a"/><path d="M682.5,350h0a135.27,135.27,0,0,0,9.35-38.46c5.24-12.67,13.33-25.78,25.82-34.65q1.91-1.36,3.89-2.54c.12,1.53.19,3.08.19,4.64,0,39.21-39.25,71-39.25,71" transform="translate(-511.2 -208)" style="fill:#203c1b"/><path d="M682.5,350a134.93,134.93,0,0,1,9.35-38.46A135.27,135.27,0,0,1,682.5,350" transform="translate(-511.2 -208)" style="fill:#1a3018"/><path d="M540.3,362,511.8,425.92H527l5.66-13.7h29.68l5.66,13.7H583.5L554.91,362Zm-2.92,39,10.14-24.48L557.65,401Z" transform="translate(-511.2 -208)" style="fill:#29592b"/><path d="M613.82,414.41a21.34,21.34,0,0,1-10.59-2.6,18.5,18.5,0,0,1-7.26-7.26,22.86,22.86,0,0,1,0-21.19,18.5,18.5,0,0,1,7.26-7.26,21.34,21.34,0,0,1,10.59-2.6A20.43,20.43,0,0,1,629.89,381l9.5-8.77a30.11,30.11,0,0,0-11.28-8.4,39.64,39.64,0,0,0-32.79,1.32,31.7,31.7,0,0,0-12.42,11.78,34.35,34.35,0,0,0,0,34.07,31.7,31.7,0,0,0,12.42,11.78A36.72,36.72,0,0,0,613,427a37.6,37.6,0,0,0,15.07-2.92,29.6,29.6,0,0,0,11.33-8.49l-9.5-8.77A20.32,20.32,0,0,1,613.82,414.41Z" transform="translate(-511.2 -208)" style="fill:#29592b"/><path d="M661.95,376.1a21.34,21.34,0,0,1,10.59-2.6A20.43,20.43,0,0,1,688.62,381l9.5-8.77a30.11,30.11,0,0,0-11.28-8.4A39.64,39.64,0,0,0,654,365.14a31.7,31.7,0,0,0-12.42,11.78,34.35,34.35,0,0,0,0,34.07A31.7,31.7,0,0,0,654,422.77,36.72,36.72,0,0,0,671.72,427a37.6,37.6,0,0,0,15.07-2.92,29.6,29.6,0,0,0,11.33-8.49l-9.5-8.77a20.32,20.32,0,0,1-16.07,7.58,21.34,21.34,0,0,1-10.59-2.6,18.5,18.5,0,0,1-7.26-7.26,22.86,22.86,0,0,1,0-21.19A18.5,18.5,0,0,1,661.95,376.1Z" transform="translate(-511.2 -208)" style="fill:#29592b"/><rect x="190.02" y="153.99" width="14.8" height="63.93" style="fill:#29592b"/><path d="M773.19,365.19a39.57,39.57,0,0,0-35.85,0A31.86,31.86,0,0,0,724.83,377a34,34,0,0,0,0,33.88,31.85,31.85,0,0,0,12.51,11.83,39.57,39.57,0,0,0,35.85,0,32.61,32.61,0,0,0,0-57.54Zm-.5,39.36a18.68,18.68,0,0,1-7.17,7.26,21.4,21.4,0,0,1-20.46,0,18.67,18.67,0,0,1-7.17-7.26,22.86,22.86,0,0,1,0-21.19,18.67,18.67,0,0,1,7.17-7.26,21.4,21.4,0,0,1,20.46,0,18.68,18.68,0,0,1,7.17,7.26,22.86,22.86,0,0,1,0,21.19Z" transform="translate(-511.2 -208)" style="fill:#29592b"/><polygon points="327.38 153.99 327.38 192.8 295.6 153.99 283.36 153.99 283.36 217.92 297.97 217.92 297.97 179.1 329.84 217.92 341.99 217.92 341.99 153.99 327.38 153.99" style="fill:#29592b"/><path d="M578.4,539.86a7.19,7.19,0,0,1,2.82,2.83,9,9,0,0,1,0,8.33,7.28,7.28,0,0,1-2.82,2.85,8,8,0,0,1-4,1,7.43,7.43,0,0,1-3.55-.84,6.49,6.49,0,0,1-2.53-2.43v3.11h-2V532.51h2.13V542a6.55,6.55,0,0,1,2.53-2.32,7.44,7.44,0,0,1,3.46-.79A8.1,8.1,0,0,1,578.4,539.86Zm-1.17,12.37a5.38,5.38,0,0,0,2.11-2.17,7.11,7.11,0,0,0,0-6.41,5.39,5.39,0,0,0-2.11-2.17,6.29,6.29,0,0,0-6,0,5.43,5.43,0,0,0-2.1,2.17,7.11,7.11,0,0,0,0,6.41,5.42,5.42,0,0,0,2.1,2.17,6.28,6.28,0,0,0,6,0Z" transform="translate(-511.2 -208)" style="fill:#29592b"/><path d="M586.58,532.51h2.13v22.23h-2.13Z" transform="translate(-511.2 -208)" style="fill:#29592b"/><path d="M597,553.85A7.53,7.53,0,0,1,594.1,551a8.67,8.67,0,0,1,0-8.27,7.43,7.43,0,0,1,2.87-2.85,8.77,8.77,0,0,1,8.21,0,7.32,7.32,0,0,1,2.86,2.85,8.78,8.78,0,0,1,0,8.27,7.42,7.42,0,0,1-2.86,2.86,8.67,8.67,0,0,1-8.21,0Zm7.12-1.62a5.31,5.31,0,0,0,2.08-2.17,7.23,7.23,0,0,0,0-6.41,5.32,5.32,0,0,0-2.08-2.17,6.31,6.31,0,0,0-6,0,5.41,5.41,0,0,0-2.1,2.17,7.11,7.11,0,0,0,0,6.41,5.4,5.4,0,0,0,2.1,2.17,6.3,6.3,0,0,0,6,0Z" transform="translate(-511.2 -208)" style="fill:#29592b"/><path d="M628,539v13.84q0,4-2,5.95t-5.92,1.93a13.22,13.22,0,0,1-4.15-.65,8.54,8.54,0,0,1-3.19-1.78l1.08-1.62a8.08,8.08,0,0,0,2.77,1.59,10.33,10.33,0,0,0,3.43.57,6.05,6.05,0,0,0,4.4-1.39,5.86,5.86,0,0,0,1.41-4.33v-2a6.41,6.41,0,0,1-2.59,2.28,8,8,0,0,1-3.55.78,8.39,8.39,0,0,1-4-1,7.18,7.18,0,0,1-2.85-2.73,7.66,7.66,0,0,1-1-4,7.58,7.58,0,0,1,1-4,7.13,7.13,0,0,1,2.83-2.7,8.45,8.45,0,0,1,4-1,8,8,0,0,1,3.62.81A6.53,6.53,0,0,1,626,542v-3Zm-5,12.54a5.28,5.28,0,0,0,2.14-2.05,5.86,5.86,0,0,0,.77-3,5.78,5.78,0,0,0-.77-3,5.35,5.35,0,0,0-2.13-2,6.92,6.92,0,0,0-6.17,0,5.21,5.21,0,0,0-2.13,2,6.26,6.26,0,0,0,0,6,5.31,5.31,0,0,0,2.13,2.05,6.37,6.37,0,0,0,3.07.73A6.45,6.45,0,0,0,623,551.52Z" transform="translate(-511.2 -208)" style="fill:#29592b"/><path d="M656.2,532.51v22.23h-2v-3.11a6.49,6.49,0,0,1-2.53,2.43,7.43,7.43,0,0,1-3.55.84,8,8,0,0,1-4-1,7.28,7.28,0,0,1-2.82-2.85,9,9,0,0,1,0-8.33,7.19,7.19,0,0,1,2.82-2.83,8.1,8.1,0,0,1,4-1,7.44,7.44,0,0,1,3.46.79,6.55,6.55,0,0,1,2.53,2.32v-9.47Zm-5,19.73a5.42,5.42,0,0,0,2.1-2.17,7.11,7.11,0,0,0,0-6.41,5.43,5.43,0,0,0-2.1-2.17,6.26,6.26,0,0,0-6,0,5.41,5.41,0,0,0-2.1,2.17,7.11,7.11,0,0,0,0,6.41,5.4,5.4,0,0,0,2.1,2.17,6.25,6.25,0,0,0,6,0Z" transform="translate(-511.2 -208)" style="fill:#29592b"/><path d="M675.85,547.52H662.67a5.63,5.63,0,0,0,1.89,4,6.26,6.26,0,0,0,4.31,1.51,6.8,6.8,0,0,0,2.7-.53,5.9,5.9,0,0,0,2.13-1.54l1.2,1.38a6.74,6.74,0,0,1-2.62,1.92,8.85,8.85,0,0,1-3.46.66,8.74,8.74,0,0,1-4.3-1,7.45,7.45,0,0,1-2.92-2.86,8.15,8.15,0,0,1-1-4.13,8.44,8.44,0,0,1,1-4.13,7.27,7.27,0,0,1,2.75-2.85,7.7,7.7,0,0,1,3.94-1,7.62,7.62,0,0,1,3.92,1,7.23,7.23,0,0,1,2.73,2.83,8.53,8.53,0,0,1,1,4.15Zm-11.43-5.38a5.71,5.71,0,0,0-1.75,3.79h11.17a5.71,5.71,0,0,0-1.75-3.79,5.79,5.79,0,0,0-7.67,0Z" transform="translate(-511.2 -208)" style="fill:#29592b"/><path d="M700.82,540.58a6.73,6.73,0,0,1,1.75,5v9.14h-2.13v-8.93a5.22,5.22,0,0,0-1.23-3.74,4.62,4.62,0,0,0-3.5-1.29,5.38,5.38,0,0,0-4,1.51,5.72,5.72,0,0,0-1.48,4.18v8.27h-2.13V539h2v2.91a5.92,5.92,0,0,1,2.41-2.23,7.71,7.71,0,0,1,3.58-.79A6.45,6.45,0,0,1,700.82,540.58Z" transform="translate(-511.2 -208)" style="fill:#29592b"/><path d="M710.75,553.85a7.53,7.53,0,0,1-2.88-2.86,8.67,8.67,0,0,1,0-8.27,7.42,7.42,0,0,1,2.88-2.85,8.77,8.77,0,0,1,8.21,0,7.33,7.33,0,0,1,2.86,2.85,8.79,8.79,0,0,1,0,8.27,7.43,7.43,0,0,1-2.86,2.86,8.67,8.67,0,0,1-8.21,0Zm7.12-1.62a5.32,5.32,0,0,0,2.08-2.17,7.24,7.24,0,0,0,0-6.41,5.33,5.33,0,0,0-2.08-2.17,6.32,6.32,0,0,0-6,0,5.43,5.43,0,0,0-2.1,2.17,7.11,7.11,0,0,0,0,6.41,5.42,5.42,0,0,0,2.1,2.17,6.31,6.31,0,0,0,6,0Z" transform="translate(-511.2 -208)" style="fill:#29592b"/><path d="M735.49,553.78a4,4,0,0,1-1.48.82,5.93,5.93,0,0,1-1.84.28,4.17,4.17,0,0,1-4.61-4.58v-9.53h-2.82V539h2.82v-3.44h2.13V539h4.79v1.8h-4.79v9.41a3,3,0,0,0,.7,2.14,2.67,2.67,0,0,0,2,.73,3.9,3.9,0,0,0,1.27-.21,3.14,3.14,0,0,0,1.06-.6Z" transform="translate(-511.2 -208)" style="fill:#29592b"/><path d="M739.33,535.09a1.47,1.47,0,0,1-.45-1.08,1.44,1.44,0,0,1,.45-1,1.51,1.51,0,0,1,1.11-.45,1.53,1.53,0,0,1,1.11.43,1.39,1.39,0,0,1,.45,1,1.57,1.57,0,0,1-2.67,1.11Zm0,3.89h2.13v15.76h-2.13Z" transform="translate(-511.2 -208)" style="fill:#29592b"/><path d="M749.76,553.87a7.39,7.39,0,0,1-2.89-2.86,8.24,8.24,0,0,1-1-4.15,8.15,8.15,0,0,1,1-4.13,7.41,7.41,0,0,1,2.89-2.85,8.5,8.5,0,0,1,4.18-1,8.09,8.09,0,0,1,3.64.79,6,6,0,0,1,2.53,2.32l-1.59,1.08a5,5,0,0,0-2-1.75,5.86,5.86,0,0,0-2.61-.58,6.17,6.17,0,0,0-3.07.76,5.37,5.37,0,0,0-2.13,2.17,7.14,7.14,0,0,0,0,6.43,5.39,5.39,0,0,0,2.13,2.16,6.17,6.17,0,0,0,3.07.77,6,6,0,0,0,2.61-.57,4.85,4.85,0,0,0,2-1.74l1.59,1.08a6,6,0,0,1-2.55,2.32,8.12,8.12,0,0,1-3.62.79A8.5,8.5,0,0,1,749.76,553.87Z" transform="translate(-511.2 -208)" style="fill:#29592b"/><path d="M764.25,535.09a1.47,1.47,0,0,1-.45-1.08,1.44,1.44,0,0,1,.45-1,1.51,1.51,0,0,1,1.11-.45,1.53,1.53,0,0,1,1.11.43,1.39,1.39,0,0,1,.45,1,1.57,1.57,0,0,1-2.67,1.11Zm0,3.89h2.13v15.76h-2.13Z" transform="translate(-511.2 -208)" style="fill:#29592b"/><path d="M782.58,540.4a6,6,0,0,1,1.65,4.57v9.77h-2v-2.46a4.87,4.87,0,0,1-2.11,1.92,7.4,7.4,0,0,1-3.31.69,6.48,6.48,0,0,1-4.19-1.26,4.33,4.33,0,0,1-.1-6.56,7.12,7.12,0,0,1,4.63-1.23h5v-1a4,4,0,0,0-1.14-3.1,4.7,4.7,0,0,0-3.32-1.06,8.45,8.45,0,0,0-2.88.49,7.24,7.24,0,0,0-2.37,1.36l-1-1.59a8.51,8.51,0,0,1,2.88-1.57,11.19,11.19,0,0,1,3.54-.55A6.67,6.67,0,0,1,782.58,540.4Zm-2.4,12A4.93,4.93,0,0,0,782.1,550v-2.58h-4.94q-4,0-4,2.82a2.57,2.57,0,0,0,1,2.17,4.77,4.77,0,0,0,2.94.79A5.6,5.6,0,0,0,780.19,552.39Z" transform="translate(-511.2 -208)" style="fill:#29592b"/><path d="M790.57,554.33a7.89,7.89,0,0,1-2.74-1.39l1-1.68a8.06,8.06,0,0,0,2.49,1.27,9.88,9.88,0,0,0,3.12.49,6,6,0,0,0,3.19-.67,2.14,2.14,0,0,0,1-1.9,1.71,1.71,0,0,0-.57-1.36,3.76,3.76,0,0,0-1.44-.75,20.63,20.63,0,0,0-2.31-.49,26.29,26.29,0,0,1-3.09-.73,4.53,4.53,0,0,1-2-1.27,3.54,3.54,0,0,1-.82-2.49,3.9,3.9,0,0,1,1.65-3.24,7.4,7.4,0,0,1,4.58-1.26,11.91,11.91,0,0,1,3.06.4,8.42,8.42,0,0,1,2.52,1.06l-.93,1.71a8,8,0,0,0-4.64-1.35,5.39,5.39,0,0,0-3.07.72,2.2,2.2,0,0,0-1,1.89,1.86,1.86,0,0,0,.58,1.44,3.6,3.6,0,0,0,1.45.79,23.22,23.22,0,0,0,2.4.53,27.15,27.15,0,0,1,3,.72,4.43,4.43,0,0,1,1.95,1.23,3.38,3.38,0,0,1,.81,2.4,3.81,3.81,0,0,1-1.72,3.28,8.19,8.19,0,0,1-4.78,1.21A12,12,0,0,1,790.57,554.33Z" transform="translate(-511.2 -208)" style="fill:#29592b"/><line x1="3.38" y1="296.41" x2="339.21" y2="296.41" style="fill:#f15a24;stroke:#006837;stroke-miterlimit:10;stroke-width:0.5px"/></svg>